<mxfile host="app.diagrams.net" modified="2022-11-15T20:14:20.207Z" agent="5.0 (Windows NT 10.0; Win64; x64) AppleWebKit/537.36 (KHTML, like Gecko) Chrome/107.0.0.0 Safari/537.36" etag="ozsn06S4diyafO_eAekJ" version="20.4.0" type="github">
  <diagram id="jGTitbtS1qTeHCHVZxVC" name="Page-1">
    <mxGraphModel dx="1978" dy="616" grid="1" gridSize="10" guides="1" tooltips="1" connect="1" arrows="1" fold="1" page="1" pageScale="1" pageWidth="850" pageHeight="1100" math="0" shadow="0">
      <root>
        <mxCell id="0" />
        <mxCell id="1" parent="0" />
        <mxCell id="I3vljjlB6DsRd7WmBtxe-4" value="&lt;font style=&quot;font-size: 10px;&quot;&gt;Selective Number of Instructor-wise performance based on the GPA&amp;nbsp;&lt;/font&gt;" style="swimlane;html=1;childLayout=stackLayout;resizeParent=1;resizeParentMax=0;horizontal=0;startSize=20;horizontalStack=0;" vertex="1" parent="1">
          <mxGeometry x="-425" y="90" width="940" height="480" as="geometry" />
        </mxCell>
        <mxCell id="I3vljjlB6DsRd7WmBtxe-5" value="Registrar Office" style="swimlane;html=1;startSize=20;horizontal=0;" vertex="1" parent="I3vljjlB6DsRd7WmBtxe-4">
          <mxGeometry x="20" width="920" height="120" as="geometry" />
        </mxCell>
        <mxCell id="I3vljjlB6DsRd7WmBtxe-9" value="" style="ellipse;whiteSpace=wrap;html=1;aspect=fixed;fontSize=10;" vertex="1" parent="I3vljjlB6DsRd7WmBtxe-5">
          <mxGeometry x="30" y="35" width="40" height="40" as="geometry" />
        </mxCell>
        <mxCell id="I3vljjlB6DsRd7WmBtxe-87" value="" style="edgeStyle=orthogonalEdgeStyle;rounded=0;orthogonalLoop=1;jettySize=auto;html=1;fontSize=10;" edge="1" parent="I3vljjlB6DsRd7WmBtxe-5" source="I3vljjlB6DsRd7WmBtxe-10" target="I3vljjlB6DsRd7WmBtxe-11">
          <mxGeometry relative="1" as="geometry" />
        </mxCell>
        <mxCell id="I3vljjlB6DsRd7WmBtxe-10" value="Logs into the dashboard using UserID and password" style="rounded=1;whiteSpace=wrap;html=1;fontSize=10;" vertex="1" parent="I3vljjlB6DsRd7WmBtxe-5">
          <mxGeometry x="90" y="32.5" width="100" height="45" as="geometry" />
        </mxCell>
        <mxCell id="I3vljjlB6DsRd7WmBtxe-11" value="Clicks on the dropdown box" style="rounded=1;whiteSpace=wrap;html=1;fontSize=10;" vertex="1" parent="I3vljjlB6DsRd7WmBtxe-5">
          <mxGeometry x="225" y="36" width="95" height="38" as="geometry" />
        </mxCell>
        <mxCell id="I3vljjlB6DsRd7WmBtxe-13" value="Select GPA Trend under Instructor" style="rounded=1;whiteSpace=wrap;html=1;fontSize=10;" vertex="1" parent="I3vljjlB6DsRd7WmBtxe-5">
          <mxGeometry x="350" y="32.5" width="100" height="45" as="geometry" />
        </mxCell>
        <mxCell id="I3vljjlB6DsRd7WmBtxe-49" value="" style="edgeStyle=orthogonalEdgeStyle;rounded=0;orthogonalLoop=1;jettySize=auto;html=1;fontSize=10;" edge="1" parent="I3vljjlB6DsRd7WmBtxe-5" source="I3vljjlB6DsRd7WmBtxe-14" target="I3vljjlB6DsRd7WmBtxe-15">
          <mxGeometry relative="1" as="geometry" />
        </mxCell>
        <mxCell id="I3vljjlB6DsRd7WmBtxe-14" value="Inputs a particular Instructor Name/ID" style="rounded=1;whiteSpace=wrap;html=1;fontSize=10;" vertex="1" parent="I3vljjlB6DsRd7WmBtxe-5">
          <mxGeometry x="495" y="32.5" width="105" height="45" as="geometry" />
        </mxCell>
        <mxCell id="I3vljjlB6DsRd7WmBtxe-15" value="View the Student performance trend under that instructor&amp;nbsp;" style="rounded=1;whiteSpace=wrap;html=1;fontSize=10;" vertex="1" parent="I3vljjlB6DsRd7WmBtxe-5">
          <mxGeometry x="635" y="30" width="105" height="50" as="geometry" />
        </mxCell>
        <mxCell id="I3vljjlB6DsRd7WmBtxe-16" value="" style="points=[[0.145,0.145,0],[0.5,0,0],[0.855,0.145,0],[1,0.5,0],[0.855,0.855,0],[0.5,1,0],[0.145,0.855,0],[0,0.5,0]];shape=mxgraph.bpmn.event;html=1;verticalLabelPosition=bottom;labelBackgroundColor=#ffffff;verticalAlign=top;align=center;perimeter=ellipsePerimeter;outlineConnect=0;aspect=fixed;outline=end;symbol=terminate2;fontSize=10;" vertex="1" parent="I3vljjlB6DsRd7WmBtxe-5">
          <mxGeometry x="775" y="30" width="50" height="50" as="geometry" />
        </mxCell>
        <mxCell id="I3vljjlB6DsRd7WmBtxe-20" value="" style="edgeStyle=elbowEdgeStyle;fontSize=12;html=1;endArrow=blockThin;endFill=1;rounded=0;exitX=1;exitY=0.5;exitDx=0;exitDy=0;entryX=0;entryY=0.5;entryDx=0;entryDy=0;" edge="1" parent="I3vljjlB6DsRd7WmBtxe-5" source="I3vljjlB6DsRd7WmBtxe-9" target="I3vljjlB6DsRd7WmBtxe-10">
          <mxGeometry width="160" relative="1" as="geometry">
            <mxPoint x="75" y="55" as="sourcePoint" />
            <mxPoint x="85" y="50" as="targetPoint" />
            <Array as="points" />
          </mxGeometry>
        </mxCell>
        <mxCell id="I3vljjlB6DsRd7WmBtxe-23" value="" style="edgeStyle=elbowEdgeStyle;fontSize=12;html=1;endArrow=blockThin;endFill=1;rounded=0;exitX=1;exitY=0.5;exitDx=0;exitDy=0;entryX=0;entryY=0.5;entryDx=0;entryDy=0;" edge="1" parent="I3vljjlB6DsRd7WmBtxe-5" target="I3vljjlB6DsRd7WmBtxe-11">
          <mxGeometry width="160" relative="1" as="geometry">
            <mxPoint x="190" y="54.709999999999994" as="sourcePoint" />
            <mxPoint x="210" y="54.709999999999994" as="targetPoint" />
            <Array as="points" />
          </mxGeometry>
        </mxCell>
        <mxCell id="I3vljjlB6DsRd7WmBtxe-34" value="" style="edgeStyle=elbowEdgeStyle;fontSize=12;html=1;endArrow=blockThin;endFill=1;rounded=0;exitX=1;exitY=0.5;exitDx=0;exitDy=0;entryX=0;entryY=0.5;entryDx=0;entryDy=0;" edge="1" parent="I3vljjlB6DsRd7WmBtxe-5" target="I3vljjlB6DsRd7WmBtxe-13">
          <mxGeometry width="160" relative="1" as="geometry">
            <mxPoint x="320" y="54.66000000000004" as="sourcePoint" />
            <mxPoint x="345" y="55" as="targetPoint" />
            <Array as="points" />
          </mxGeometry>
        </mxCell>
        <mxCell id="I3vljjlB6DsRd7WmBtxe-46" value="" style="edgeStyle=elbowEdgeStyle;fontSize=12;html=1;endArrow=blockThin;endFill=1;rounded=0;exitX=1;exitY=0.5;exitDx=0;exitDy=0;entryX=0;entryY=0.5;entryDx=0;entryDy=0;" edge="1" parent="I3vljjlB6DsRd7WmBtxe-5" target="I3vljjlB6DsRd7WmBtxe-14">
          <mxGeometry width="160" relative="1" as="geometry">
            <mxPoint x="450" y="54.66000000000008" as="sourcePoint" />
            <mxPoint x="485" y="54.94999999999993" as="targetPoint" />
            <Array as="points" />
          </mxGeometry>
        </mxCell>
        <mxCell id="I3vljjlB6DsRd7WmBtxe-48" value="" style="edgeStyle=elbowEdgeStyle;fontSize=12;html=1;endArrow=blockThin;endFill=1;rounded=0;exitX=1;exitY=0.5;exitDx=0;exitDy=0;entryX=0;entryY=0.5;entryDx=0;entryDy=0;" edge="1" parent="I3vljjlB6DsRd7WmBtxe-5" source="I3vljjlB6DsRd7WmBtxe-14">
          <mxGeometry width="160" relative="1" as="geometry">
            <mxPoint x="590" y="54.66000000000008" as="sourcePoint" />
            <mxPoint x="635" y="55" as="targetPoint" />
            <Array as="points" />
          </mxGeometry>
        </mxCell>
        <mxCell id="I3vljjlB6DsRd7WmBtxe-50" value="" style="edgeStyle=elbowEdgeStyle;fontSize=12;html=1;endArrow=blockThin;endFill=1;rounded=0;exitX=1;exitY=0.5;exitDx=0;exitDy=0;entryX=0;entryY=0.5;entryDx=0;entryDy=0;" edge="1" parent="I3vljjlB6DsRd7WmBtxe-5">
          <mxGeometry width="160" relative="1" as="geometry">
            <mxPoint x="740" y="54.66" as="sourcePoint" />
            <mxPoint x="775" y="54.66" as="targetPoint" />
            <Array as="points" />
          </mxGeometry>
        </mxCell>
        <mxCell id="I3vljjlB6DsRd7WmBtxe-6" value="Faculty" style="swimlane;html=1;startSize=20;horizontal=0;" vertex="1" parent="I3vljjlB6DsRd7WmBtxe-4">
          <mxGeometry x="20" y="120" width="920" height="120" as="geometry" />
        </mxCell>
        <mxCell id="I3vljjlB6DsRd7WmBtxe-81" value="" style="ellipse;whiteSpace=wrap;html=1;aspect=fixed;fontSize=10;" vertex="1" parent="I3vljjlB6DsRd7WmBtxe-6">
          <mxGeometry x="30" y="35" width="50" height="50" as="geometry" />
        </mxCell>
        <mxCell id="I3vljjlB6DsRd7WmBtxe-82" value="Logs into the dashboard using Faculty UserID and password" style="rounded=1;whiteSpace=wrap;html=1;fontSize=10;" vertex="1" parent="I3vljjlB6DsRd7WmBtxe-6">
          <mxGeometry x="115" y="35" width="115" height="45" as="geometry" />
        </mxCell>
        <mxCell id="I3vljjlB6DsRd7WmBtxe-83" value="Clicks on the dropdown box" style="rounded=1;whiteSpace=wrap;html=1;fontSize=10;" vertex="1" parent="I3vljjlB6DsRd7WmBtxe-6">
          <mxGeometry x="275" y="38.5" width="95" height="38" as="geometry" />
        </mxCell>
        <mxCell id="I3vljjlB6DsRd7WmBtxe-84" value="Select GPA Trend under Name(logged in ID)" style="rounded=1;whiteSpace=wrap;html=1;fontSize=10;" vertex="1" parent="I3vljjlB6DsRd7WmBtxe-6">
          <mxGeometry x="405" y="35" width="100" height="45" as="geometry" />
        </mxCell>
        <mxCell id="I3vljjlB6DsRd7WmBtxe-85" value="Inputs a particular Instructor Name/ID" style="rounded=1;whiteSpace=wrap;html=1;fontSize=10;" vertex="1" parent="I3vljjlB6DsRd7WmBtxe-6">
          <mxGeometry x="545" y="35" width="105" height="45" as="geometry" />
        </mxCell>
        <mxCell id="I3vljjlB6DsRd7WmBtxe-86" value="View the Student performance trend under that instructor&amp;nbsp;" style="rounded=1;whiteSpace=wrap;html=1;fontSize=10;" vertex="1" parent="I3vljjlB6DsRd7WmBtxe-6">
          <mxGeometry x="695" y="32.5" width="105" height="50" as="geometry" />
        </mxCell>
        <mxCell id="I3vljjlB6DsRd7WmBtxe-88" value="" style="edgeStyle=orthogonalEdgeStyle;rounded=0;orthogonalLoop=1;jettySize=auto;html=1;fontSize=10;" edge="1" parent="I3vljjlB6DsRd7WmBtxe-6">
          <mxGeometry relative="1" as="geometry">
            <mxPoint x="80" y="60.004482758620696" as="sourcePoint" />
            <mxPoint x="115" y="60" as="targetPoint" />
          </mxGeometry>
        </mxCell>
        <mxCell id="I3vljjlB6DsRd7WmBtxe-89" value="" style="edgeStyle=orthogonalEdgeStyle;rounded=0;orthogonalLoop=1;jettySize=auto;html=1;fontSize=10;" edge="1" parent="I3vljjlB6DsRd7WmBtxe-6">
          <mxGeometry relative="1" as="geometry">
            <mxPoint x="230" y="59.66448275862072" as="sourcePoint" />
            <mxPoint x="275" y="60" as="targetPoint" />
            <Array as="points">
              <mxPoint x="265" y="60" />
              <mxPoint x="265" y="60" />
            </Array>
          </mxGeometry>
        </mxCell>
        <mxCell id="I3vljjlB6DsRd7WmBtxe-90" value="" style="edgeStyle=elbowEdgeStyle;fontSize=12;html=1;endArrow=blockThin;endFill=1;rounded=0;exitX=1;exitY=0.5;exitDx=0;exitDy=0;entryX=0;entryY=0.556;entryDx=0;entryDy=0;entryPerimeter=0;" edge="1" parent="I3vljjlB6DsRd7WmBtxe-6" target="I3vljjlB6DsRd7WmBtxe-84">
          <mxGeometry width="160" relative="1" as="geometry">
            <mxPoint x="370" y="59.66000000000008" as="sourcePoint" />
            <mxPoint x="400" y="60" as="targetPoint" />
            <Array as="points" />
          </mxGeometry>
        </mxCell>
        <mxCell id="I3vljjlB6DsRd7WmBtxe-94" value="" style="edgeStyle=elbowEdgeStyle;fontSize=12;html=1;endArrow=blockThin;endFill=1;rounded=0;exitX=1;exitY=0.5;exitDx=0;exitDy=0;entryX=0;entryY=0.556;entryDx=0;entryDy=0;entryPerimeter=0;" edge="1" parent="I3vljjlB6DsRd7WmBtxe-6" target="I3vljjlB6DsRd7WmBtxe-85">
          <mxGeometry width="160" relative="1" as="geometry">
            <mxPoint x="505" y="59.66000000000008" as="sourcePoint" />
            <mxPoint x="540" y="60.020000000000095" as="targetPoint" />
            <Array as="points" />
          </mxGeometry>
        </mxCell>
        <mxCell id="I3vljjlB6DsRd7WmBtxe-95" value="" style="edgeStyle=elbowEdgeStyle;fontSize=12;html=1;endArrow=blockThin;endFill=1;rounded=0;entryX=0;entryY=0.5;entryDx=0;entryDy=0;" edge="1" parent="I3vljjlB6DsRd7WmBtxe-6">
          <mxGeometry width="160" relative="1" as="geometry">
            <mxPoint x="650" y="60" as="sourcePoint" />
            <mxPoint x="695" y="59.66" as="targetPoint" />
            <Array as="points" />
          </mxGeometry>
        </mxCell>
        <mxCell id="I3vljjlB6DsRd7WmBtxe-97" value="" style="points=[[0.145,0.145,0],[0.5,0,0],[0.855,0.145,0],[1,0.5,0],[0.855,0.855,0],[0.5,1,0],[0.145,0.855,0],[0,0.5,0]];shape=mxgraph.bpmn.event;html=1;verticalLabelPosition=bottom;labelBackgroundColor=#ffffff;verticalAlign=top;align=center;perimeter=ellipsePerimeter;outlineConnect=0;aspect=fixed;outline=end;symbol=terminate2;fontSize=10;" vertex="1" parent="I3vljjlB6DsRd7WmBtxe-6">
          <mxGeometry x="845" y="32.5" width="50" height="50" as="geometry" />
        </mxCell>
        <mxCell id="I3vljjlB6DsRd7WmBtxe-98" value="" style="edgeStyle=elbowEdgeStyle;fontSize=12;html=1;endArrow=blockThin;endFill=1;rounded=0;exitX=1;exitY=0.5;exitDx=0;exitDy=0;entryX=0;entryY=0.5;entryDx=0;entryDy=0;entryPerimeter=0;" edge="1" parent="I3vljjlB6DsRd7WmBtxe-6" target="I3vljjlB6DsRd7WmBtxe-97">
          <mxGeometry width="160" relative="1" as="geometry">
            <mxPoint x="800" y="57.15999999999997" as="sourcePoint" />
            <mxPoint x="835" y="57.15999999999997" as="targetPoint" />
            <Array as="points" />
          </mxGeometry>
        </mxCell>
        <mxCell id="I3vljjlB6DsRd7WmBtxe-117" value="Department Head" style="swimlane;html=1;startSize=20;horizontal=0;" vertex="1" parent="I3vljjlB6DsRd7WmBtxe-4">
          <mxGeometry x="20" y="240" width="920" height="120" as="geometry" />
        </mxCell>
        <mxCell id="I3vljjlB6DsRd7WmBtxe-118" value="" style="ellipse;whiteSpace=wrap;html=1;aspect=fixed;fontSize=10;" vertex="1" parent="I3vljjlB6DsRd7WmBtxe-117">
          <mxGeometry x="30" y="35" width="50" height="50" as="geometry" />
        </mxCell>
        <mxCell id="I3vljjlB6DsRd7WmBtxe-119" value="Logs into the dashboard using UserID and password" style="rounded=1;whiteSpace=wrap;html=1;fontSize=10;" vertex="1" parent="I3vljjlB6DsRd7WmBtxe-117">
          <mxGeometry x="115" y="35" width="115" height="45" as="geometry" />
        </mxCell>
        <mxCell id="I3vljjlB6DsRd7WmBtxe-120" value="Clicks on the dropdown box" style="rounded=1;whiteSpace=wrap;html=1;fontSize=10;" vertex="1" parent="I3vljjlB6DsRd7WmBtxe-117">
          <mxGeometry x="275" y="38.5" width="95" height="38" as="geometry" />
        </mxCell>
        <mxCell id="I3vljjlB6DsRd7WmBtxe-121" value="Select GPA Trend under Instructor" style="rounded=1;whiteSpace=wrap;html=1;fontSize=10;" vertex="1" parent="I3vljjlB6DsRd7WmBtxe-117">
          <mxGeometry x="405" y="35" width="100" height="45" as="geometry" />
        </mxCell>
        <mxCell id="I3vljjlB6DsRd7WmBtxe-122" value="Inputs a particular Instructor Name/ID" style="rounded=1;whiteSpace=wrap;html=1;fontSize=10;" vertex="1" parent="I3vljjlB6DsRd7WmBtxe-117">
          <mxGeometry x="545" y="35" width="105" height="45" as="geometry" />
        </mxCell>
        <mxCell id="I3vljjlB6DsRd7WmBtxe-123" value="View the Student performance trend under that instructor&amp;nbsp;" style="rounded=1;whiteSpace=wrap;html=1;fontSize=10;" vertex="1" parent="I3vljjlB6DsRd7WmBtxe-117">
          <mxGeometry x="695" y="32.5" width="105" height="50" as="geometry" />
        </mxCell>
        <mxCell id="I3vljjlB6DsRd7WmBtxe-124" value="" style="edgeStyle=orthogonalEdgeStyle;rounded=0;orthogonalLoop=1;jettySize=auto;html=1;fontSize=10;" edge="1" parent="I3vljjlB6DsRd7WmBtxe-117">
          <mxGeometry relative="1" as="geometry">
            <mxPoint x="80" y="60.004482758620696" as="sourcePoint" />
            <mxPoint x="115" y="60" as="targetPoint" />
          </mxGeometry>
        </mxCell>
        <mxCell id="I3vljjlB6DsRd7WmBtxe-125" value="" style="edgeStyle=orthogonalEdgeStyle;rounded=0;orthogonalLoop=1;jettySize=auto;html=1;fontSize=10;" edge="1" parent="I3vljjlB6DsRd7WmBtxe-117">
          <mxGeometry relative="1" as="geometry">
            <mxPoint x="230" y="59.66448275862072" as="sourcePoint" />
            <mxPoint x="275" y="60" as="targetPoint" />
            <Array as="points">
              <mxPoint x="265" y="60" />
              <mxPoint x="265" y="60" />
            </Array>
          </mxGeometry>
        </mxCell>
        <mxCell id="I3vljjlB6DsRd7WmBtxe-126" value="" style="edgeStyle=elbowEdgeStyle;fontSize=12;html=1;endArrow=blockThin;endFill=1;rounded=0;exitX=1;exitY=0.5;exitDx=0;exitDy=0;entryX=0;entryY=0.556;entryDx=0;entryDy=0;entryPerimeter=0;" edge="1" parent="I3vljjlB6DsRd7WmBtxe-117" target="I3vljjlB6DsRd7WmBtxe-121">
          <mxGeometry width="160" relative="1" as="geometry">
            <mxPoint x="370" y="59.66000000000008" as="sourcePoint" />
            <mxPoint x="400" y="60" as="targetPoint" />
            <Array as="points" />
          </mxGeometry>
        </mxCell>
        <mxCell id="I3vljjlB6DsRd7WmBtxe-127" value="" style="edgeStyle=elbowEdgeStyle;fontSize=12;html=1;endArrow=blockThin;endFill=1;rounded=0;exitX=1;exitY=0.5;exitDx=0;exitDy=0;entryX=0;entryY=0.556;entryDx=0;entryDy=0;entryPerimeter=0;" edge="1" parent="I3vljjlB6DsRd7WmBtxe-117" target="I3vljjlB6DsRd7WmBtxe-122">
          <mxGeometry width="160" relative="1" as="geometry">
            <mxPoint x="505" y="59.66000000000008" as="sourcePoint" />
            <mxPoint x="540" y="60.020000000000095" as="targetPoint" />
            <Array as="points" />
          </mxGeometry>
        </mxCell>
        <mxCell id="I3vljjlB6DsRd7WmBtxe-128" value="" style="edgeStyle=elbowEdgeStyle;fontSize=12;html=1;endArrow=blockThin;endFill=1;rounded=0;entryX=0;entryY=0.5;entryDx=0;entryDy=0;" edge="1" parent="I3vljjlB6DsRd7WmBtxe-117">
          <mxGeometry width="160" relative="1" as="geometry">
            <mxPoint x="650" y="60" as="sourcePoint" />
            <mxPoint x="695" y="59.66" as="targetPoint" />
            <Array as="points" />
          </mxGeometry>
        </mxCell>
        <mxCell id="I3vljjlB6DsRd7WmBtxe-129" value="" style="points=[[0.145,0.145,0],[0.5,0,0],[0.855,0.145,0],[1,0.5,0],[0.855,0.855,0],[0.5,1,0],[0.145,0.855,0],[0,0.5,0]];shape=mxgraph.bpmn.event;html=1;verticalLabelPosition=bottom;labelBackgroundColor=#ffffff;verticalAlign=top;align=center;perimeter=ellipsePerimeter;outlineConnect=0;aspect=fixed;outline=end;symbol=terminate2;fontSize=10;" vertex="1" parent="I3vljjlB6DsRd7WmBtxe-117">
          <mxGeometry x="845" y="32.5" width="50" height="50" as="geometry" />
        </mxCell>
        <mxCell id="I3vljjlB6DsRd7WmBtxe-130" value="" style="edgeStyle=elbowEdgeStyle;fontSize=12;html=1;endArrow=blockThin;endFill=1;rounded=0;exitX=1;exitY=0.5;exitDx=0;exitDy=0;entryX=0;entryY=0.5;entryDx=0;entryDy=0;entryPerimeter=0;" edge="1" parent="I3vljjlB6DsRd7WmBtxe-117" target="I3vljjlB6DsRd7WmBtxe-129">
          <mxGeometry width="160" relative="1" as="geometry">
            <mxPoint x="800" y="57.15999999999997" as="sourcePoint" />
            <mxPoint x="835" y="57.15999999999997" as="targetPoint" />
            <Array as="points" />
          </mxGeometry>
        </mxCell>
        <mxCell id="I3vljjlB6DsRd7WmBtxe-131" value="&lt;font style=&quot;font-size: 9px;&quot;&gt;Higher Authority (VC/Dean)&lt;/font&gt;" style="swimlane;html=1;startSize=20;horizontal=0;" vertex="1" parent="I3vljjlB6DsRd7WmBtxe-4">
          <mxGeometry x="20" y="360" width="920" height="120" as="geometry" />
        </mxCell>
        <mxCell id="I3vljjlB6DsRd7WmBtxe-132" value="" style="ellipse;whiteSpace=wrap;html=1;aspect=fixed;fontSize=10;" vertex="1" parent="I3vljjlB6DsRd7WmBtxe-131">
          <mxGeometry x="30" y="35" width="50" height="50" as="geometry" />
        </mxCell>
        <mxCell id="I3vljjlB6DsRd7WmBtxe-133" value="Logs into the dashboard using Faculty UserID and password" style="rounded=1;whiteSpace=wrap;html=1;fontSize=10;" vertex="1" parent="I3vljjlB6DsRd7WmBtxe-131">
          <mxGeometry x="115" y="35" width="115" height="45" as="geometry" />
        </mxCell>
        <mxCell id="I3vljjlB6DsRd7WmBtxe-134" value="Clicks on the dropdown box" style="rounded=1;whiteSpace=wrap;html=1;fontSize=10;" vertex="1" parent="I3vljjlB6DsRd7WmBtxe-131">
          <mxGeometry x="275" y="38.5" width="95" height="38" as="geometry" />
        </mxCell>
        <mxCell id="I3vljjlB6DsRd7WmBtxe-135" value="Select GPA Trend under Instructor" style="rounded=1;whiteSpace=wrap;html=1;fontSize=10;" vertex="1" parent="I3vljjlB6DsRd7WmBtxe-131">
          <mxGeometry x="405" y="35" width="100" height="45" as="geometry" />
        </mxCell>
        <mxCell id="I3vljjlB6DsRd7WmBtxe-136" value="Inputs a particular Instructor Name/ID" style="rounded=1;whiteSpace=wrap;html=1;fontSize=10;" vertex="1" parent="I3vljjlB6DsRd7WmBtxe-131">
          <mxGeometry x="545" y="35" width="105" height="45" as="geometry" />
        </mxCell>
        <mxCell id="I3vljjlB6DsRd7WmBtxe-137" value="View the Student performance trend under that instructor&amp;nbsp;" style="rounded=1;whiteSpace=wrap;html=1;fontSize=10;" vertex="1" parent="I3vljjlB6DsRd7WmBtxe-131">
          <mxGeometry x="695" y="32.5" width="105" height="50" as="geometry" />
        </mxCell>
        <mxCell id="I3vljjlB6DsRd7WmBtxe-138" value="" style="edgeStyle=orthogonalEdgeStyle;rounded=0;orthogonalLoop=1;jettySize=auto;html=1;fontSize=10;" edge="1" parent="I3vljjlB6DsRd7WmBtxe-131">
          <mxGeometry relative="1" as="geometry">
            <mxPoint x="80" y="60.004482758620696" as="sourcePoint" />
            <mxPoint x="115" y="60" as="targetPoint" />
          </mxGeometry>
        </mxCell>
        <mxCell id="I3vljjlB6DsRd7WmBtxe-139" value="" style="edgeStyle=orthogonalEdgeStyle;rounded=0;orthogonalLoop=1;jettySize=auto;html=1;fontSize=10;" edge="1" parent="I3vljjlB6DsRd7WmBtxe-131">
          <mxGeometry relative="1" as="geometry">
            <mxPoint x="230" y="59.66448275862072" as="sourcePoint" />
            <mxPoint x="275" y="60" as="targetPoint" />
            <Array as="points">
              <mxPoint x="265" y="60" />
              <mxPoint x="265" y="60" />
            </Array>
          </mxGeometry>
        </mxCell>
        <mxCell id="I3vljjlB6DsRd7WmBtxe-140" value="" style="edgeStyle=elbowEdgeStyle;fontSize=12;html=1;endArrow=blockThin;endFill=1;rounded=0;exitX=1;exitY=0.5;exitDx=0;exitDy=0;entryX=0;entryY=0.556;entryDx=0;entryDy=0;entryPerimeter=0;" edge="1" parent="I3vljjlB6DsRd7WmBtxe-131" target="I3vljjlB6DsRd7WmBtxe-135">
          <mxGeometry width="160" relative="1" as="geometry">
            <mxPoint x="370" y="59.66000000000008" as="sourcePoint" />
            <mxPoint x="400" y="60" as="targetPoint" />
            <Array as="points" />
          </mxGeometry>
        </mxCell>
        <mxCell id="I3vljjlB6DsRd7WmBtxe-141" value="" style="edgeStyle=elbowEdgeStyle;fontSize=12;html=1;endArrow=blockThin;endFill=1;rounded=0;exitX=1;exitY=0.5;exitDx=0;exitDy=0;entryX=0;entryY=0.556;entryDx=0;entryDy=0;entryPerimeter=0;" edge="1" parent="I3vljjlB6DsRd7WmBtxe-131" target="I3vljjlB6DsRd7WmBtxe-136">
          <mxGeometry width="160" relative="1" as="geometry">
            <mxPoint x="505" y="59.66000000000008" as="sourcePoint" />
            <mxPoint x="540" y="60.020000000000095" as="targetPoint" />
            <Array as="points" />
          </mxGeometry>
        </mxCell>
        <mxCell id="I3vljjlB6DsRd7WmBtxe-142" value="" style="edgeStyle=elbowEdgeStyle;fontSize=12;html=1;endArrow=blockThin;endFill=1;rounded=0;entryX=0;entryY=0.5;entryDx=0;entryDy=0;" edge="1" parent="I3vljjlB6DsRd7WmBtxe-131">
          <mxGeometry width="160" relative="1" as="geometry">
            <mxPoint x="650" y="60" as="sourcePoint" />
            <mxPoint x="695" y="59.66" as="targetPoint" />
            <Array as="points" />
          </mxGeometry>
        </mxCell>
        <mxCell id="I3vljjlB6DsRd7WmBtxe-143" value="" style="points=[[0.145,0.145,0],[0.5,0,0],[0.855,0.145,0],[1,0.5,0],[0.855,0.855,0],[0.5,1,0],[0.145,0.855,0],[0,0.5,0]];shape=mxgraph.bpmn.event;html=1;verticalLabelPosition=bottom;labelBackgroundColor=#ffffff;verticalAlign=top;align=center;perimeter=ellipsePerimeter;outlineConnect=0;aspect=fixed;outline=end;symbol=terminate2;fontSize=10;" vertex="1" parent="I3vljjlB6DsRd7WmBtxe-131">
          <mxGeometry x="845" y="32.5" width="50" height="50" as="geometry" />
        </mxCell>
        <mxCell id="I3vljjlB6DsRd7WmBtxe-144" value="" style="edgeStyle=elbowEdgeStyle;fontSize=12;html=1;endArrow=blockThin;endFill=1;rounded=0;exitX=1;exitY=0.5;exitDx=0;exitDy=0;entryX=0;entryY=0.5;entryDx=0;entryDy=0;entryPerimeter=0;" edge="1" parent="I3vljjlB6DsRd7WmBtxe-131" target="I3vljjlB6DsRd7WmBtxe-143">
          <mxGeometry width="160" relative="1" as="geometry">
            <mxPoint x="800" y="57.15999999999997" as="sourcePoint" />
            <mxPoint x="835" y="57.15999999999997" as="targetPoint" />
            <Array as="points" />
          </mxGeometry>
        </mxCell>
        <mxCell id="I3vljjlB6DsRd7WmBtxe-116" value="Figure 2.0: Selective Number of Instructor-wise performance based on the GPA" style="text;html=1;align=center;verticalAlign=middle;resizable=0;points=[];autosize=1;strokeColor=none;fillColor=none;fontSize=15;fontStyle=1" vertex="1" parent="1">
          <mxGeometry x="-330" y="600" width="590" height="30" as="geometry" />
        </mxCell>
        <mxCell id="I3vljjlB6DsRd7WmBtxe-145" value="&lt;font style=&quot;font-size: 10px;&quot;&gt;Selective Number of Instructor-wise performance based on the GPA&amp;nbsp;&lt;/font&gt;" style="swimlane;html=1;childLayout=stackLayout;resizeParent=1;resizeParentMax=0;horizontal=0;startSize=20;horizontalStack=0;" vertex="1" parent="1">
          <mxGeometry x="-420" y="660" width="940" height="600" as="geometry" />
        </mxCell>
        <mxCell id="I3vljjlB6DsRd7WmBtxe-146" value="Student" style="swimlane;html=1;startSize=20;horizontal=0;" vertex="1" parent="I3vljjlB6DsRd7WmBtxe-145">
          <mxGeometry x="20" width="920" height="120" as="geometry" />
        </mxCell>
        <mxCell id="I3vljjlB6DsRd7WmBtxe-147" value="" style="ellipse;whiteSpace=wrap;html=1;aspect=fixed;fontSize=10;" vertex="1" parent="I3vljjlB6DsRd7WmBtxe-146">
          <mxGeometry x="30" y="35" width="40" height="40" as="geometry" />
        </mxCell>
        <mxCell id="I3vljjlB6DsRd7WmBtxe-148" value="" style="edgeStyle=orthogonalEdgeStyle;rounded=0;orthogonalLoop=1;jettySize=auto;html=1;fontSize=10;" edge="1" parent="I3vljjlB6DsRd7WmBtxe-146" source="I3vljjlB6DsRd7WmBtxe-149" target="I3vljjlB6DsRd7WmBtxe-150">
          <mxGeometry relative="1" as="geometry" />
        </mxCell>
        <mxCell id="I3vljjlB6DsRd7WmBtxe-149" value="Logs into the dashboard using UserID and password" style="rounded=1;whiteSpace=wrap;html=1;fontSize=10;" vertex="1" parent="I3vljjlB6DsRd7WmBtxe-146">
          <mxGeometry x="90" y="32.5" width="100" height="45" as="geometry" />
        </mxCell>
        <mxCell id="I3vljjlB6DsRd7WmBtxe-150" value="Clicks on the dropdown box" style="rounded=1;whiteSpace=wrap;html=1;fontSize=10;" vertex="1" parent="I3vljjlB6DsRd7WmBtxe-146">
          <mxGeometry x="225" y="36" width="95" height="38" as="geometry" />
        </mxCell>
        <mxCell id="I3vljjlB6DsRd7WmBtxe-151" value="Select GPA&amp;nbsp;" style="rounded=1;whiteSpace=wrap;html=1;fontSize=10;" vertex="1" parent="I3vljjlB6DsRd7WmBtxe-146">
          <mxGeometry x="350" y="32.5" width="100" height="45" as="geometry" />
        </mxCell>
        <mxCell id="I3vljjlB6DsRd7WmBtxe-152" value="" style="edgeStyle=orthogonalEdgeStyle;rounded=0;orthogonalLoop=1;jettySize=auto;html=1;fontSize=10;" edge="1" parent="I3vljjlB6DsRd7WmBtxe-146" source="I3vljjlB6DsRd7WmBtxe-153" target="I3vljjlB6DsRd7WmBtxe-154">
          <mxGeometry relative="1" as="geometry" />
        </mxCell>
        <mxCell id="I3vljjlB6DsRd7WmBtxe-153" value="Inputs course ID/course IDs" style="rounded=1;whiteSpace=wrap;html=1;fontSize=10;" vertex="1" parent="I3vljjlB6DsRd7WmBtxe-146">
          <mxGeometry x="495" y="32.5" width="105" height="45" as="geometry" />
        </mxCell>
        <mxCell id="I3vljjlB6DsRd7WmBtxe-154" value="View GPA for that specific course or courses&amp;nbsp;" style="rounded=1;whiteSpace=wrap;html=1;fontSize=10;" vertex="1" parent="I3vljjlB6DsRd7WmBtxe-146">
          <mxGeometry x="635" y="30" width="105" height="50" as="geometry" />
        </mxCell>
        <mxCell id="I3vljjlB6DsRd7WmBtxe-155" value="" style="points=[[0.145,0.145,0],[0.5,0,0],[0.855,0.145,0],[1,0.5,0],[0.855,0.855,0],[0.5,1,0],[0.145,0.855,0],[0,0.5,0]];shape=mxgraph.bpmn.event;html=1;verticalLabelPosition=bottom;labelBackgroundColor=#ffffff;verticalAlign=top;align=center;perimeter=ellipsePerimeter;outlineConnect=0;aspect=fixed;outline=end;symbol=terminate2;fontSize=10;" vertex="1" parent="I3vljjlB6DsRd7WmBtxe-146">
          <mxGeometry x="775" y="30" width="50" height="50" as="geometry" />
        </mxCell>
        <mxCell id="I3vljjlB6DsRd7WmBtxe-156" value="" style="edgeStyle=elbowEdgeStyle;fontSize=12;html=1;endArrow=blockThin;endFill=1;rounded=0;exitX=1;exitY=0.5;exitDx=0;exitDy=0;entryX=0;entryY=0.5;entryDx=0;entryDy=0;" edge="1" parent="I3vljjlB6DsRd7WmBtxe-146" source="I3vljjlB6DsRd7WmBtxe-147" target="I3vljjlB6DsRd7WmBtxe-149">
          <mxGeometry width="160" relative="1" as="geometry">
            <mxPoint x="75" y="55" as="sourcePoint" />
            <mxPoint x="85" y="50" as="targetPoint" />
            <Array as="points" />
          </mxGeometry>
        </mxCell>
        <mxCell id="I3vljjlB6DsRd7WmBtxe-157" value="" style="edgeStyle=elbowEdgeStyle;fontSize=12;html=1;endArrow=blockThin;endFill=1;rounded=0;exitX=1;exitY=0.5;exitDx=0;exitDy=0;entryX=0;entryY=0.5;entryDx=0;entryDy=0;" edge="1" parent="I3vljjlB6DsRd7WmBtxe-146" target="I3vljjlB6DsRd7WmBtxe-150">
          <mxGeometry width="160" relative="1" as="geometry">
            <mxPoint x="190" y="54.709999999999994" as="sourcePoint" />
            <mxPoint x="210" y="54.709999999999994" as="targetPoint" />
            <Array as="points" />
          </mxGeometry>
        </mxCell>
        <mxCell id="I3vljjlB6DsRd7WmBtxe-158" value="" style="edgeStyle=elbowEdgeStyle;fontSize=12;html=1;endArrow=blockThin;endFill=1;rounded=0;exitX=1;exitY=0.5;exitDx=0;exitDy=0;entryX=0;entryY=0.5;entryDx=0;entryDy=0;" edge="1" parent="I3vljjlB6DsRd7WmBtxe-146" target="I3vljjlB6DsRd7WmBtxe-151">
          <mxGeometry width="160" relative="1" as="geometry">
            <mxPoint x="320" y="54.66000000000004" as="sourcePoint" />
            <mxPoint x="345" y="55" as="targetPoint" />
            <Array as="points" />
          </mxGeometry>
        </mxCell>
        <mxCell id="I3vljjlB6DsRd7WmBtxe-159" value="" style="edgeStyle=elbowEdgeStyle;fontSize=12;html=1;endArrow=blockThin;endFill=1;rounded=0;exitX=1;exitY=0.5;exitDx=0;exitDy=0;entryX=0;entryY=0.5;entryDx=0;entryDy=0;" edge="1" parent="I3vljjlB6DsRd7WmBtxe-146" target="I3vljjlB6DsRd7WmBtxe-153">
          <mxGeometry width="160" relative="1" as="geometry">
            <mxPoint x="450" y="54.66000000000008" as="sourcePoint" />
            <mxPoint x="485" y="54.94999999999993" as="targetPoint" />
            <Array as="points" />
          </mxGeometry>
        </mxCell>
        <mxCell id="I3vljjlB6DsRd7WmBtxe-160" value="" style="edgeStyle=elbowEdgeStyle;fontSize=12;html=1;endArrow=blockThin;endFill=1;rounded=0;exitX=1;exitY=0.5;exitDx=0;exitDy=0;entryX=0;entryY=0.5;entryDx=0;entryDy=0;" edge="1" parent="I3vljjlB6DsRd7WmBtxe-146" source="I3vljjlB6DsRd7WmBtxe-153">
          <mxGeometry width="160" relative="1" as="geometry">
            <mxPoint x="590" y="54.66000000000008" as="sourcePoint" />
            <mxPoint x="635" y="55" as="targetPoint" />
            <Array as="points" />
          </mxGeometry>
        </mxCell>
        <mxCell id="I3vljjlB6DsRd7WmBtxe-161" value="" style="edgeStyle=elbowEdgeStyle;fontSize=12;html=1;endArrow=blockThin;endFill=1;rounded=0;exitX=1;exitY=0.5;exitDx=0;exitDy=0;entryX=0;entryY=0.5;entryDx=0;entryDy=0;" edge="1" parent="I3vljjlB6DsRd7WmBtxe-146">
          <mxGeometry width="160" relative="1" as="geometry">
            <mxPoint x="740" y="54.66" as="sourcePoint" />
            <mxPoint x="775" y="54.66" as="targetPoint" />
            <Array as="points" />
          </mxGeometry>
        </mxCell>
        <mxCell id="I3vljjlB6DsRd7WmBtxe-204" value="Registrar Office" style="swimlane;html=1;startSize=20;horizontal=0;" vertex="1" parent="I3vljjlB6DsRd7WmBtxe-145">
          <mxGeometry x="20" y="120" width="920" height="120" as="geometry" />
        </mxCell>
        <mxCell id="I3vljjlB6DsRd7WmBtxe-205" value="" style="ellipse;whiteSpace=wrap;html=1;aspect=fixed;fontSize=10;" vertex="1" parent="I3vljjlB6DsRd7WmBtxe-204">
          <mxGeometry x="30" y="35" width="40" height="40" as="geometry" />
        </mxCell>
        <mxCell id="I3vljjlB6DsRd7WmBtxe-206" value="" style="edgeStyle=orthogonalEdgeStyle;rounded=0;orthogonalLoop=1;jettySize=auto;html=1;fontSize=10;" edge="1" parent="I3vljjlB6DsRd7WmBtxe-204" source="I3vljjlB6DsRd7WmBtxe-207" target="I3vljjlB6DsRd7WmBtxe-208">
          <mxGeometry relative="1" as="geometry" />
        </mxCell>
        <mxCell id="I3vljjlB6DsRd7WmBtxe-207" value="Logs into the dashboard using UserID and password" style="rounded=1;whiteSpace=wrap;html=1;fontSize=10;" vertex="1" parent="I3vljjlB6DsRd7WmBtxe-204">
          <mxGeometry x="90" y="32.5" width="100" height="45" as="geometry" />
        </mxCell>
        <mxCell id="I3vljjlB6DsRd7WmBtxe-208" value="Clicks on the dropdown box" style="rounded=1;whiteSpace=wrap;html=1;fontSize=10;" vertex="1" parent="I3vljjlB6DsRd7WmBtxe-204">
          <mxGeometry x="225" y="36" width="95" height="38" as="geometry" />
        </mxCell>
        <mxCell id="I3vljjlB6DsRd7WmBtxe-209" value="Select GPA&amp;nbsp;" style="rounded=1;whiteSpace=wrap;html=1;fontSize=10;" vertex="1" parent="I3vljjlB6DsRd7WmBtxe-204">
          <mxGeometry x="350" y="32.5" width="100" height="45" as="geometry" />
        </mxCell>
        <mxCell id="I3vljjlB6DsRd7WmBtxe-210" value="" style="edgeStyle=orthogonalEdgeStyle;rounded=0;orthogonalLoop=1;jettySize=auto;html=1;fontSize=10;" edge="1" parent="I3vljjlB6DsRd7WmBtxe-204" source="I3vljjlB6DsRd7WmBtxe-211" target="I3vljjlB6DsRd7WmBtxe-212">
          <mxGeometry relative="1" as="geometry" />
        </mxCell>
        <mxCell id="I3vljjlB6DsRd7WmBtxe-211" value="Inputs the desired time-period and courses" style="rounded=1;whiteSpace=wrap;html=1;fontSize=10;" vertex="1" parent="I3vljjlB6DsRd7WmBtxe-204">
          <mxGeometry x="495" y="32.5" width="105" height="45" as="geometry" />
        </mxCell>
        <mxCell id="I3vljjlB6DsRd7WmBtxe-212" value="View Statistically analyzed GPA trend of students&amp;nbsp;" style="rounded=1;whiteSpace=wrap;html=1;fontSize=10;" vertex="1" parent="I3vljjlB6DsRd7WmBtxe-204">
          <mxGeometry x="635" y="30" width="105" height="50" as="geometry" />
        </mxCell>
        <mxCell id="I3vljjlB6DsRd7WmBtxe-213" value="" style="points=[[0.145,0.145,0],[0.5,0,0],[0.855,0.145,0],[1,0.5,0],[0.855,0.855,0],[0.5,1,0],[0.145,0.855,0],[0,0.5,0]];shape=mxgraph.bpmn.event;html=1;verticalLabelPosition=bottom;labelBackgroundColor=#ffffff;verticalAlign=top;align=center;perimeter=ellipsePerimeter;outlineConnect=0;aspect=fixed;outline=end;symbol=terminate2;fontSize=10;" vertex="1" parent="I3vljjlB6DsRd7WmBtxe-204">
          <mxGeometry x="775" y="30" width="50" height="50" as="geometry" />
        </mxCell>
        <mxCell id="I3vljjlB6DsRd7WmBtxe-214" value="" style="edgeStyle=elbowEdgeStyle;fontSize=12;html=1;endArrow=blockThin;endFill=1;rounded=0;exitX=1;exitY=0.5;exitDx=0;exitDy=0;entryX=0;entryY=0.5;entryDx=0;entryDy=0;" edge="1" parent="I3vljjlB6DsRd7WmBtxe-204" source="I3vljjlB6DsRd7WmBtxe-205" target="I3vljjlB6DsRd7WmBtxe-207">
          <mxGeometry width="160" relative="1" as="geometry">
            <mxPoint x="75" y="55" as="sourcePoint" />
            <mxPoint x="85" y="50" as="targetPoint" />
            <Array as="points" />
          </mxGeometry>
        </mxCell>
        <mxCell id="I3vljjlB6DsRd7WmBtxe-215" value="" style="edgeStyle=elbowEdgeStyle;fontSize=12;html=1;endArrow=blockThin;endFill=1;rounded=0;exitX=1;exitY=0.5;exitDx=0;exitDy=0;entryX=0;entryY=0.5;entryDx=0;entryDy=0;" edge="1" parent="I3vljjlB6DsRd7WmBtxe-204" target="I3vljjlB6DsRd7WmBtxe-208">
          <mxGeometry width="160" relative="1" as="geometry">
            <mxPoint x="190" y="54.709999999999994" as="sourcePoint" />
            <mxPoint x="210" y="54.709999999999994" as="targetPoint" />
            <Array as="points" />
          </mxGeometry>
        </mxCell>
        <mxCell id="I3vljjlB6DsRd7WmBtxe-216" value="" style="edgeStyle=elbowEdgeStyle;fontSize=12;html=1;endArrow=blockThin;endFill=1;rounded=0;exitX=1;exitY=0.5;exitDx=0;exitDy=0;entryX=0;entryY=0.5;entryDx=0;entryDy=0;" edge="1" parent="I3vljjlB6DsRd7WmBtxe-204" target="I3vljjlB6DsRd7WmBtxe-209">
          <mxGeometry width="160" relative="1" as="geometry">
            <mxPoint x="320" y="54.66000000000004" as="sourcePoint" />
            <mxPoint x="345" y="55" as="targetPoint" />
            <Array as="points" />
          </mxGeometry>
        </mxCell>
        <mxCell id="I3vljjlB6DsRd7WmBtxe-217" value="" style="edgeStyle=elbowEdgeStyle;fontSize=12;html=1;endArrow=blockThin;endFill=1;rounded=0;exitX=1;exitY=0.5;exitDx=0;exitDy=0;entryX=0;entryY=0.5;entryDx=0;entryDy=0;" edge="1" parent="I3vljjlB6DsRd7WmBtxe-204" target="I3vljjlB6DsRd7WmBtxe-211">
          <mxGeometry width="160" relative="1" as="geometry">
            <mxPoint x="450" y="54.66000000000008" as="sourcePoint" />
            <mxPoint x="485" y="54.94999999999993" as="targetPoint" />
            <Array as="points" />
          </mxGeometry>
        </mxCell>
        <mxCell id="I3vljjlB6DsRd7WmBtxe-218" value="" style="edgeStyle=elbowEdgeStyle;fontSize=12;html=1;endArrow=blockThin;endFill=1;rounded=0;exitX=1;exitY=0.5;exitDx=0;exitDy=0;entryX=0;entryY=0.5;entryDx=0;entryDy=0;" edge="1" parent="I3vljjlB6DsRd7WmBtxe-204" source="I3vljjlB6DsRd7WmBtxe-211">
          <mxGeometry width="160" relative="1" as="geometry">
            <mxPoint x="590" y="54.66000000000008" as="sourcePoint" />
            <mxPoint x="635" y="55" as="targetPoint" />
            <Array as="points" />
          </mxGeometry>
        </mxCell>
        <mxCell id="I3vljjlB6DsRd7WmBtxe-219" value="" style="edgeStyle=elbowEdgeStyle;fontSize=12;html=1;endArrow=blockThin;endFill=1;rounded=0;exitX=1;exitY=0.5;exitDx=0;exitDy=0;entryX=0;entryY=0.5;entryDx=0;entryDy=0;" edge="1" parent="I3vljjlB6DsRd7WmBtxe-204">
          <mxGeometry width="160" relative="1" as="geometry">
            <mxPoint x="740" y="54.66" as="sourcePoint" />
            <mxPoint x="775" y="54.66" as="targetPoint" />
            <Array as="points" />
          </mxGeometry>
        </mxCell>
        <mxCell id="I3vljjlB6DsRd7WmBtxe-220" value="Faculty" style="swimlane;html=1;startSize=20;horizontal=0;" vertex="1" parent="I3vljjlB6DsRd7WmBtxe-145">
          <mxGeometry x="20" y="240" width="920" height="120" as="geometry" />
        </mxCell>
        <mxCell id="I3vljjlB6DsRd7WmBtxe-221" value="" style="ellipse;whiteSpace=wrap;html=1;aspect=fixed;fontSize=10;" vertex="1" parent="I3vljjlB6DsRd7WmBtxe-220">
          <mxGeometry x="30" y="35" width="40" height="40" as="geometry" />
        </mxCell>
        <mxCell id="I3vljjlB6DsRd7WmBtxe-222" value="" style="edgeStyle=orthogonalEdgeStyle;rounded=0;orthogonalLoop=1;jettySize=auto;html=1;fontSize=10;" edge="1" parent="I3vljjlB6DsRd7WmBtxe-220" source="I3vljjlB6DsRd7WmBtxe-223" target="I3vljjlB6DsRd7WmBtxe-224">
          <mxGeometry relative="1" as="geometry" />
        </mxCell>
        <mxCell id="I3vljjlB6DsRd7WmBtxe-223" value="Logs into the dashboard using UserID and password" style="rounded=1;whiteSpace=wrap;html=1;fontSize=10;" vertex="1" parent="I3vljjlB6DsRd7WmBtxe-220">
          <mxGeometry x="90" y="32.5" width="100" height="45" as="geometry" />
        </mxCell>
        <mxCell id="I3vljjlB6DsRd7WmBtxe-224" value="Clicks on the dropdown box" style="rounded=1;whiteSpace=wrap;html=1;fontSize=10;" vertex="1" parent="I3vljjlB6DsRd7WmBtxe-220">
          <mxGeometry x="225" y="36" width="95" height="38" as="geometry" />
        </mxCell>
        <mxCell id="I3vljjlB6DsRd7WmBtxe-225" value="Select GPA&amp;nbsp;" style="rounded=1;whiteSpace=wrap;html=1;fontSize=10;" vertex="1" parent="I3vljjlB6DsRd7WmBtxe-220">
          <mxGeometry x="350" y="32.5" width="100" height="45" as="geometry" />
        </mxCell>
        <mxCell id="I3vljjlB6DsRd7WmBtxe-226" value="" style="edgeStyle=orthogonalEdgeStyle;rounded=0;orthogonalLoop=1;jettySize=auto;html=1;fontSize=10;" edge="1" parent="I3vljjlB6DsRd7WmBtxe-220" source="I3vljjlB6DsRd7WmBtxe-227" target="I3vljjlB6DsRd7WmBtxe-228">
          <mxGeometry relative="1" as="geometry" />
        </mxCell>
        <mxCell id="I3vljjlB6DsRd7WmBtxe-227" value="Inputs desired &lt;br&gt;time-period and courses under that specific faculty" style="rounded=1;whiteSpace=wrap;html=1;fontSize=10;" vertex="1" parent="I3vljjlB6DsRd7WmBtxe-220">
          <mxGeometry x="495" y="32.5" width="105" height="45" as="geometry" />
        </mxCell>
        <mxCell id="I3vljjlB6DsRd7WmBtxe-228" value="View Statistically analyzed GPA trend of students who attended the faculty&#39;s section" style="rounded=1;whiteSpace=wrap;html=1;fontSize=10;" vertex="1" parent="I3vljjlB6DsRd7WmBtxe-220">
          <mxGeometry x="635" y="30" width="105" height="50" as="geometry" />
        </mxCell>
        <mxCell id="I3vljjlB6DsRd7WmBtxe-229" value="" style="points=[[0.145,0.145,0],[0.5,0,0],[0.855,0.145,0],[1,0.5,0],[0.855,0.855,0],[0.5,1,0],[0.145,0.855,0],[0,0.5,0]];shape=mxgraph.bpmn.event;html=1;verticalLabelPosition=bottom;labelBackgroundColor=#ffffff;verticalAlign=top;align=center;perimeter=ellipsePerimeter;outlineConnect=0;aspect=fixed;outline=end;symbol=terminate2;fontSize=10;" vertex="1" parent="I3vljjlB6DsRd7WmBtxe-220">
          <mxGeometry x="775" y="30" width="50" height="50" as="geometry" />
        </mxCell>
        <mxCell id="I3vljjlB6DsRd7WmBtxe-230" value="" style="edgeStyle=elbowEdgeStyle;fontSize=12;html=1;endArrow=blockThin;endFill=1;rounded=0;exitX=1;exitY=0.5;exitDx=0;exitDy=0;entryX=0;entryY=0.5;entryDx=0;entryDy=0;" edge="1" parent="I3vljjlB6DsRd7WmBtxe-220" source="I3vljjlB6DsRd7WmBtxe-221" target="I3vljjlB6DsRd7WmBtxe-223">
          <mxGeometry width="160" relative="1" as="geometry">
            <mxPoint x="75" y="55" as="sourcePoint" />
            <mxPoint x="85" y="50" as="targetPoint" />
            <Array as="points" />
          </mxGeometry>
        </mxCell>
        <mxCell id="I3vljjlB6DsRd7WmBtxe-231" value="" style="edgeStyle=elbowEdgeStyle;fontSize=12;html=1;endArrow=blockThin;endFill=1;rounded=0;exitX=1;exitY=0.5;exitDx=0;exitDy=0;entryX=0;entryY=0.5;entryDx=0;entryDy=0;" edge="1" parent="I3vljjlB6DsRd7WmBtxe-220" target="I3vljjlB6DsRd7WmBtxe-224">
          <mxGeometry width="160" relative="1" as="geometry">
            <mxPoint x="190" y="54.709999999999994" as="sourcePoint" />
            <mxPoint x="210" y="54.709999999999994" as="targetPoint" />
            <Array as="points" />
          </mxGeometry>
        </mxCell>
        <mxCell id="I3vljjlB6DsRd7WmBtxe-232" value="" style="edgeStyle=elbowEdgeStyle;fontSize=12;html=1;endArrow=blockThin;endFill=1;rounded=0;exitX=1;exitY=0.5;exitDx=0;exitDy=0;entryX=0;entryY=0.5;entryDx=0;entryDy=0;" edge="1" parent="I3vljjlB6DsRd7WmBtxe-220" target="I3vljjlB6DsRd7WmBtxe-225">
          <mxGeometry width="160" relative="1" as="geometry">
            <mxPoint x="320" y="54.66000000000004" as="sourcePoint" />
            <mxPoint x="345" y="55" as="targetPoint" />
            <Array as="points" />
          </mxGeometry>
        </mxCell>
        <mxCell id="I3vljjlB6DsRd7WmBtxe-233" value="" style="edgeStyle=elbowEdgeStyle;fontSize=12;html=1;endArrow=blockThin;endFill=1;rounded=0;exitX=1;exitY=0.5;exitDx=0;exitDy=0;entryX=0;entryY=0.5;entryDx=0;entryDy=0;" edge="1" parent="I3vljjlB6DsRd7WmBtxe-220" target="I3vljjlB6DsRd7WmBtxe-227">
          <mxGeometry width="160" relative="1" as="geometry">
            <mxPoint x="450" y="54.66000000000008" as="sourcePoint" />
            <mxPoint x="485" y="54.94999999999993" as="targetPoint" />
            <Array as="points" />
          </mxGeometry>
        </mxCell>
        <mxCell id="I3vljjlB6DsRd7WmBtxe-234" value="" style="edgeStyle=elbowEdgeStyle;fontSize=12;html=1;endArrow=blockThin;endFill=1;rounded=0;exitX=1;exitY=0.5;exitDx=0;exitDy=0;entryX=0;entryY=0.5;entryDx=0;entryDy=0;" edge="1" parent="I3vljjlB6DsRd7WmBtxe-220" source="I3vljjlB6DsRd7WmBtxe-227">
          <mxGeometry width="160" relative="1" as="geometry">
            <mxPoint x="590" y="54.66000000000008" as="sourcePoint" />
            <mxPoint x="635" y="55" as="targetPoint" />
            <Array as="points" />
          </mxGeometry>
        </mxCell>
        <mxCell id="I3vljjlB6DsRd7WmBtxe-235" value="" style="edgeStyle=elbowEdgeStyle;fontSize=12;html=1;endArrow=blockThin;endFill=1;rounded=0;exitX=1;exitY=0.5;exitDx=0;exitDy=0;entryX=0;entryY=0.5;entryDx=0;entryDy=0;" edge="1" parent="I3vljjlB6DsRd7WmBtxe-220">
          <mxGeometry width="160" relative="1" as="geometry">
            <mxPoint x="740" y="54.66" as="sourcePoint" />
            <mxPoint x="775" y="54.66" as="targetPoint" />
            <Array as="points" />
          </mxGeometry>
        </mxCell>
        <mxCell id="I3vljjlB6DsRd7WmBtxe-236" value="Department Head&amp;nbsp;" style="swimlane;html=1;startSize=20;horizontal=0;" vertex="1" parent="I3vljjlB6DsRd7WmBtxe-145">
          <mxGeometry x="20" y="360" width="920" height="120" as="geometry" />
        </mxCell>
        <mxCell id="I3vljjlB6DsRd7WmBtxe-237" value="" style="ellipse;whiteSpace=wrap;html=1;aspect=fixed;fontSize=10;" vertex="1" parent="I3vljjlB6DsRd7WmBtxe-236">
          <mxGeometry x="30" y="35" width="40" height="40" as="geometry" />
        </mxCell>
        <mxCell id="I3vljjlB6DsRd7WmBtxe-238" value="" style="edgeStyle=orthogonalEdgeStyle;rounded=0;orthogonalLoop=1;jettySize=auto;html=1;fontSize=10;" edge="1" parent="I3vljjlB6DsRd7WmBtxe-236" source="I3vljjlB6DsRd7WmBtxe-239" target="I3vljjlB6DsRd7WmBtxe-240">
          <mxGeometry relative="1" as="geometry" />
        </mxCell>
        <mxCell id="I3vljjlB6DsRd7WmBtxe-239" value="Logs into the dashboard using UserID and password" style="rounded=1;whiteSpace=wrap;html=1;fontSize=10;" vertex="1" parent="I3vljjlB6DsRd7WmBtxe-236">
          <mxGeometry x="90" y="32.5" width="100" height="45" as="geometry" />
        </mxCell>
        <mxCell id="I3vljjlB6DsRd7WmBtxe-240" value="Clicks on the dropdown box" style="rounded=1;whiteSpace=wrap;html=1;fontSize=10;" vertex="1" parent="I3vljjlB6DsRd7WmBtxe-236">
          <mxGeometry x="225" y="36" width="95" height="38" as="geometry" />
        </mxCell>
        <mxCell id="I3vljjlB6DsRd7WmBtxe-241" value="Select GPA&amp;nbsp;" style="rounded=1;whiteSpace=wrap;html=1;fontSize=10;" vertex="1" parent="I3vljjlB6DsRd7WmBtxe-236">
          <mxGeometry x="350" y="32.5" width="100" height="45" as="geometry" />
        </mxCell>
        <mxCell id="I3vljjlB6DsRd7WmBtxe-242" value="" style="edgeStyle=orthogonalEdgeStyle;rounded=0;orthogonalLoop=1;jettySize=auto;html=1;fontSize=10;" edge="1" parent="I3vljjlB6DsRd7WmBtxe-236" source="I3vljjlB6DsRd7WmBtxe-243" target="I3vljjlB6DsRd7WmBtxe-244">
          <mxGeometry relative="1" as="geometry" />
        </mxCell>
        <mxCell id="I3vljjlB6DsRd7WmBtxe-243" value="Inputs desired &lt;br&gt;time-period and course ID" style="rounded=1;whiteSpace=wrap;html=1;fontSize=10;" vertex="1" parent="I3vljjlB6DsRd7WmBtxe-236">
          <mxGeometry x="495" y="32.5" width="105" height="45" as="geometry" />
        </mxCell>
        <mxCell id="I3vljjlB6DsRd7WmBtxe-244" value="View Statistically analyzed GPA trend of students&amp;nbsp;" style="rounded=1;whiteSpace=wrap;html=1;fontSize=10;" vertex="1" parent="I3vljjlB6DsRd7WmBtxe-236">
          <mxGeometry x="635" y="30" width="105" height="50" as="geometry" />
        </mxCell>
        <mxCell id="I3vljjlB6DsRd7WmBtxe-245" value="" style="points=[[0.145,0.145,0],[0.5,0,0],[0.855,0.145,0],[1,0.5,0],[0.855,0.855,0],[0.5,1,0],[0.145,0.855,0],[0,0.5,0]];shape=mxgraph.bpmn.event;html=1;verticalLabelPosition=bottom;labelBackgroundColor=#ffffff;verticalAlign=top;align=center;perimeter=ellipsePerimeter;outlineConnect=0;aspect=fixed;outline=end;symbol=terminate2;fontSize=10;" vertex="1" parent="I3vljjlB6DsRd7WmBtxe-236">
          <mxGeometry x="775" y="30" width="50" height="50" as="geometry" />
        </mxCell>
        <mxCell id="I3vljjlB6DsRd7WmBtxe-246" value="" style="edgeStyle=elbowEdgeStyle;fontSize=12;html=1;endArrow=blockThin;endFill=1;rounded=0;exitX=1;exitY=0.5;exitDx=0;exitDy=0;entryX=0;entryY=0.5;entryDx=0;entryDy=0;" edge="1" parent="I3vljjlB6DsRd7WmBtxe-236" source="I3vljjlB6DsRd7WmBtxe-237" target="I3vljjlB6DsRd7WmBtxe-239">
          <mxGeometry width="160" relative="1" as="geometry">
            <mxPoint x="75" y="55" as="sourcePoint" />
            <mxPoint x="85" y="50" as="targetPoint" />
            <Array as="points" />
          </mxGeometry>
        </mxCell>
        <mxCell id="I3vljjlB6DsRd7WmBtxe-247" value="" style="edgeStyle=elbowEdgeStyle;fontSize=12;html=1;endArrow=blockThin;endFill=1;rounded=0;exitX=1;exitY=0.5;exitDx=0;exitDy=0;entryX=0;entryY=0.5;entryDx=0;entryDy=0;" edge="1" parent="I3vljjlB6DsRd7WmBtxe-236" target="I3vljjlB6DsRd7WmBtxe-240">
          <mxGeometry width="160" relative="1" as="geometry">
            <mxPoint x="190" y="54.709999999999994" as="sourcePoint" />
            <mxPoint x="210" y="54.709999999999994" as="targetPoint" />
            <Array as="points" />
          </mxGeometry>
        </mxCell>
        <mxCell id="I3vljjlB6DsRd7WmBtxe-248" value="" style="edgeStyle=elbowEdgeStyle;fontSize=12;html=1;endArrow=blockThin;endFill=1;rounded=0;exitX=1;exitY=0.5;exitDx=0;exitDy=0;entryX=0;entryY=0.5;entryDx=0;entryDy=0;" edge="1" parent="I3vljjlB6DsRd7WmBtxe-236" target="I3vljjlB6DsRd7WmBtxe-241">
          <mxGeometry width="160" relative="1" as="geometry">
            <mxPoint x="320" y="54.66000000000004" as="sourcePoint" />
            <mxPoint x="345" y="55" as="targetPoint" />
            <Array as="points" />
          </mxGeometry>
        </mxCell>
        <mxCell id="I3vljjlB6DsRd7WmBtxe-249" value="" style="edgeStyle=elbowEdgeStyle;fontSize=12;html=1;endArrow=blockThin;endFill=1;rounded=0;exitX=1;exitY=0.5;exitDx=0;exitDy=0;entryX=0;entryY=0.5;entryDx=0;entryDy=0;" edge="1" parent="I3vljjlB6DsRd7WmBtxe-236" target="I3vljjlB6DsRd7WmBtxe-243">
          <mxGeometry width="160" relative="1" as="geometry">
            <mxPoint x="450" y="54.66000000000008" as="sourcePoint" />
            <mxPoint x="485" y="54.94999999999993" as="targetPoint" />
            <Array as="points" />
          </mxGeometry>
        </mxCell>
        <mxCell id="I3vljjlB6DsRd7WmBtxe-250" value="" style="edgeStyle=elbowEdgeStyle;fontSize=12;html=1;endArrow=blockThin;endFill=1;rounded=0;exitX=1;exitY=0.5;exitDx=0;exitDy=0;entryX=0;entryY=0.5;entryDx=0;entryDy=0;" edge="1" parent="I3vljjlB6DsRd7WmBtxe-236" source="I3vljjlB6DsRd7WmBtxe-243">
          <mxGeometry width="160" relative="1" as="geometry">
            <mxPoint x="590" y="54.66000000000008" as="sourcePoint" />
            <mxPoint x="635" y="55" as="targetPoint" />
            <Array as="points" />
          </mxGeometry>
        </mxCell>
        <mxCell id="I3vljjlB6DsRd7WmBtxe-251" value="" style="edgeStyle=elbowEdgeStyle;fontSize=12;html=1;endArrow=blockThin;endFill=1;rounded=0;exitX=1;exitY=0.5;exitDx=0;exitDy=0;entryX=0;entryY=0.5;entryDx=0;entryDy=0;" edge="1" parent="I3vljjlB6DsRd7WmBtxe-236">
          <mxGeometry width="160" relative="1" as="geometry">
            <mxPoint x="740" y="54.66" as="sourcePoint" />
            <mxPoint x="775" y="54.66" as="targetPoint" />
            <Array as="points" />
          </mxGeometry>
        </mxCell>
        <mxCell id="I3vljjlB6DsRd7WmBtxe-252" value="&lt;font style=&quot;font-size: 9px;&quot;&gt;Higher Authority (VC/Dean)&lt;/font&gt;" style="swimlane;html=1;startSize=20;horizontal=0;" vertex="1" parent="I3vljjlB6DsRd7WmBtxe-145">
          <mxGeometry x="20" y="480" width="920" height="120" as="geometry" />
        </mxCell>
        <mxCell id="I3vljjlB6DsRd7WmBtxe-253" value="" style="ellipse;whiteSpace=wrap;html=1;aspect=fixed;fontSize=10;" vertex="1" parent="I3vljjlB6DsRd7WmBtxe-252">
          <mxGeometry x="30" y="35" width="40" height="40" as="geometry" />
        </mxCell>
        <mxCell id="I3vljjlB6DsRd7WmBtxe-254" value="" style="edgeStyle=orthogonalEdgeStyle;rounded=0;orthogonalLoop=1;jettySize=auto;html=1;fontSize=10;" edge="1" parent="I3vljjlB6DsRd7WmBtxe-252" source="I3vljjlB6DsRd7WmBtxe-255" target="I3vljjlB6DsRd7WmBtxe-256">
          <mxGeometry relative="1" as="geometry" />
        </mxCell>
        <mxCell id="I3vljjlB6DsRd7WmBtxe-255" value="Logs into the dashboard using UserID and password" style="rounded=1;whiteSpace=wrap;html=1;fontSize=10;" vertex="1" parent="I3vljjlB6DsRd7WmBtxe-252">
          <mxGeometry x="90" y="32.5" width="100" height="45" as="geometry" />
        </mxCell>
        <mxCell id="I3vljjlB6DsRd7WmBtxe-256" value="Clicks on the dropdown box" style="rounded=1;whiteSpace=wrap;html=1;fontSize=10;" vertex="1" parent="I3vljjlB6DsRd7WmBtxe-252">
          <mxGeometry x="225" y="36" width="95" height="38" as="geometry" />
        </mxCell>
        <mxCell id="I3vljjlB6DsRd7WmBtxe-257" value="Select GPA&amp;nbsp;" style="rounded=1;whiteSpace=wrap;html=1;fontSize=10;" vertex="1" parent="I3vljjlB6DsRd7WmBtxe-252">
          <mxGeometry x="350" y="32.5" width="100" height="45" as="geometry" />
        </mxCell>
        <mxCell id="I3vljjlB6DsRd7WmBtxe-258" value="" style="edgeStyle=orthogonalEdgeStyle;rounded=0;orthogonalLoop=1;jettySize=auto;html=1;fontSize=10;" edge="1" parent="I3vljjlB6DsRd7WmBtxe-252" source="I3vljjlB6DsRd7WmBtxe-259" target="I3vljjlB6DsRd7WmBtxe-260">
          <mxGeometry relative="1" as="geometry" />
        </mxCell>
        <mxCell id="I3vljjlB6DsRd7WmBtxe-259" value="Inputs desired&lt;br&gt;time-period and course ID" style="rounded=1;whiteSpace=wrap;html=1;fontSize=10;" vertex="1" parent="I3vljjlB6DsRd7WmBtxe-252">
          <mxGeometry x="495" y="32.5" width="105" height="45" as="geometry" />
        </mxCell>
        <mxCell id="I3vljjlB6DsRd7WmBtxe-260" value="View Statistically analyzed GPA trend of students&amp;nbsp;" style="rounded=1;whiteSpace=wrap;html=1;fontSize=10;" vertex="1" parent="I3vljjlB6DsRd7WmBtxe-252">
          <mxGeometry x="635" y="30" width="105" height="50" as="geometry" />
        </mxCell>
        <mxCell id="I3vljjlB6DsRd7WmBtxe-261" value="" style="points=[[0.145,0.145,0],[0.5,0,0],[0.855,0.145,0],[1,0.5,0],[0.855,0.855,0],[0.5,1,0],[0.145,0.855,0],[0,0.5,0]];shape=mxgraph.bpmn.event;html=1;verticalLabelPosition=bottom;labelBackgroundColor=#ffffff;verticalAlign=top;align=center;perimeter=ellipsePerimeter;outlineConnect=0;aspect=fixed;outline=end;symbol=terminate2;fontSize=10;" vertex="1" parent="I3vljjlB6DsRd7WmBtxe-252">
          <mxGeometry x="775" y="30" width="50" height="50" as="geometry" />
        </mxCell>
        <mxCell id="I3vljjlB6DsRd7WmBtxe-262" value="" style="edgeStyle=elbowEdgeStyle;fontSize=12;html=1;endArrow=blockThin;endFill=1;rounded=0;exitX=1;exitY=0.5;exitDx=0;exitDy=0;entryX=0;entryY=0.5;entryDx=0;entryDy=0;" edge="1" parent="I3vljjlB6DsRd7WmBtxe-252" source="I3vljjlB6DsRd7WmBtxe-253" target="I3vljjlB6DsRd7WmBtxe-255">
          <mxGeometry width="160" relative="1" as="geometry">
            <mxPoint x="75" y="55" as="sourcePoint" />
            <mxPoint x="85" y="50" as="targetPoint" />
            <Array as="points" />
          </mxGeometry>
        </mxCell>
        <mxCell id="I3vljjlB6DsRd7WmBtxe-263" value="" style="edgeStyle=elbowEdgeStyle;fontSize=12;html=1;endArrow=blockThin;endFill=1;rounded=0;exitX=1;exitY=0.5;exitDx=0;exitDy=0;entryX=0;entryY=0.5;entryDx=0;entryDy=0;" edge="1" parent="I3vljjlB6DsRd7WmBtxe-252" target="I3vljjlB6DsRd7WmBtxe-256">
          <mxGeometry width="160" relative="1" as="geometry">
            <mxPoint x="190" y="54.709999999999994" as="sourcePoint" />
            <mxPoint x="210" y="54.709999999999994" as="targetPoint" />
            <Array as="points" />
          </mxGeometry>
        </mxCell>
        <mxCell id="I3vljjlB6DsRd7WmBtxe-264" value="" style="edgeStyle=elbowEdgeStyle;fontSize=12;html=1;endArrow=blockThin;endFill=1;rounded=0;exitX=1;exitY=0.5;exitDx=0;exitDy=0;entryX=0;entryY=0.5;entryDx=0;entryDy=0;" edge="1" parent="I3vljjlB6DsRd7WmBtxe-252" target="I3vljjlB6DsRd7WmBtxe-257">
          <mxGeometry width="160" relative="1" as="geometry">
            <mxPoint x="320" y="54.66000000000004" as="sourcePoint" />
            <mxPoint x="345" y="55" as="targetPoint" />
            <Array as="points" />
          </mxGeometry>
        </mxCell>
        <mxCell id="I3vljjlB6DsRd7WmBtxe-265" value="" style="edgeStyle=elbowEdgeStyle;fontSize=12;html=1;endArrow=blockThin;endFill=1;rounded=0;exitX=1;exitY=0.5;exitDx=0;exitDy=0;entryX=0;entryY=0.5;entryDx=0;entryDy=0;" edge="1" parent="I3vljjlB6DsRd7WmBtxe-252" target="I3vljjlB6DsRd7WmBtxe-259">
          <mxGeometry width="160" relative="1" as="geometry">
            <mxPoint x="450" y="54.66000000000008" as="sourcePoint" />
            <mxPoint x="485" y="54.94999999999993" as="targetPoint" />
            <Array as="points" />
          </mxGeometry>
        </mxCell>
        <mxCell id="I3vljjlB6DsRd7WmBtxe-266" value="" style="edgeStyle=elbowEdgeStyle;fontSize=12;html=1;endArrow=blockThin;endFill=1;rounded=0;exitX=1;exitY=0.5;exitDx=0;exitDy=0;entryX=0;entryY=0.5;entryDx=0;entryDy=0;" edge="1" parent="I3vljjlB6DsRd7WmBtxe-252" source="I3vljjlB6DsRd7WmBtxe-259">
          <mxGeometry width="160" relative="1" as="geometry">
            <mxPoint x="590" y="54.66000000000008" as="sourcePoint" />
            <mxPoint x="635" y="55" as="targetPoint" />
            <Array as="points" />
          </mxGeometry>
        </mxCell>
        <mxCell id="I3vljjlB6DsRd7WmBtxe-267" value="" style="edgeStyle=elbowEdgeStyle;fontSize=12;html=1;endArrow=blockThin;endFill=1;rounded=0;exitX=1;exitY=0.5;exitDx=0;exitDy=0;entryX=0;entryY=0.5;entryDx=0;entryDy=0;" edge="1" parent="I3vljjlB6DsRd7WmBtxe-252">
          <mxGeometry width="160" relative="1" as="geometry">
            <mxPoint x="740" y="54.66" as="sourcePoint" />
            <mxPoint x="775" y="54.66" as="targetPoint" />
            <Array as="points" />
          </mxGeometry>
        </mxCell>
        <mxCell id="I3vljjlB6DsRd7WmBtxe-268" value="&lt;b&gt;&lt;font style=&quot;font-size: 16px;&quot;&gt;Fig 1.9:Student performance based on CGPA&lt;/font&gt;&lt;/b&gt;" style="text;html=1;align=center;verticalAlign=middle;resizable=0;points=[];autosize=1;strokeColor=none;fillColor=none;fontSize=9;" vertex="1" parent="1">
          <mxGeometry x="10" y="1295" width="360" height="30" as="geometry" />
        </mxCell>
      </root>
    </mxGraphModel>
  </diagram>
</mxfile>
